PathFileType	4	(X/Y/Z)	C:/Users/beibeiliu/ov580/test_trc\sequence.5_training_dense_left.trc
DataRate	CameraRate	NumFrames	NumMarkers	Units	OrigDataRate	OrigDataStartFrame	OrigNumFrames
120	120	10	19	mm	120	76	100
Frame#	Time	ThumbCMC			ThumbMCP			ThumbIP			ThumbTip			IndexMCP			IndexPIP			IndexTip			MiddleMCP			MiddlePIP			MiddleTip			RingMCP			RingPIP			RingTip			PinkyMCP			PinkyPIP			PinkyTip			BackHand1			BackHand2			BackHand3	
		X0	Y0	Z0	X1	Y1	Z1	X2	Y2	Z2	X3	Y3	Z3	X4	Y4	Z4	X5	Y5	Z5	X6	Y6	Z6	X7	Y7	Z7	X8	Y8	Z8	X9	Y9	Z9	X10	Y10	Z10	X11	Y11	Z11	X12	Y12	Z12	X13	Y13	Z13	X14	Y14	Z14	X15	Y15	Z15	X16	Y16	Z16	X17	Y17	Z17	X18	Y18	Z18	
75	0.625	-218.904	49.3484	87.6972	-209.949	41.2317	58.4006	-210.124	33.1769	36.4998	-209.616	17.3135	19.2588	-253.728	27.2786	35.862	-243.976	18.916	10.9776	-228.814	15.5232	-6.89501	-247.87	9.19834	34.4557	-221.051	-0.0358221	25.2962	-204.359	10.4697	53.8964	-239.795	-9.36837	46.0752	-213.067	-4.71441	40.8452	-203.567	6.02843	68.5133	-237.188	-18.8127	60.4614	-212.872	-16.7689	55.1996	-208.337	5.19441	71.8908	-255.3	7.76677	89.3316	-245.371	15.9576	119.105	-248.994	34.2132	100.043	
76	0.633333	-213.855	51.4745	83.7568	-202.473	43.4878	56.8597	-206.13	30.6464	35.9355	-204.49	17.7429	16.295	-249.858	41.6101	34.9459	-245.98	33.9003	8.67604	-235.568	22.6952	-9.38704	-245.373	15.2239	30.4176	-219.63	3.46422	23.0961	-202.262	11.6428	48.4673	-240.502	0.366443	42.803	-210.739	-4.94589	41.0067	-202.138	4.58951	63.4085	-237.237	-16.2782	55.8868	-213.806	-13.3367	52.6171	-206.178	7.45098	73.7357	-252.089	13.2238	91.1713	-247.147	16.094	114.376	-247.556	39.1415	94.2527	
77	0.641667	-207.649	50.9511	84.6655	-196.988	41.3746	55.1947	-194.722	31.6176	32.5665	-196.691	17.3102	16.285	-246.149	48.4204	32.803	-246.276	44.8049	5.84079	-239.8	35.0468	-16.9091	-241.502	25.6458	27.1398	-218.197	12.1445	17.162	-201.723	11.6786	45.6641	-236.596	5.41391	37.9794	-208.903	-1.15985	39.191	-200.049	8.22764	63.7886	-236.362	-7.03983	49.3453	-211.688	-6.41492	49.9783	-207.039	8.75291	67.502	-253.796	20.4774	85.478	-243.256	23.2796	111.207	-242.313	45.5212	90.8725	
78	0.65	-195.793	53.5212	81.9615	-187.816	38.7122	52.1592	-186.815	27.6098	33.0649	-191.96	12.4724	17.1292	-233.304	56.0746	25.9906	-233.322	54.503	3.12865	-228.445	44.7303	-18.6887	-235.974	30.048	25.1522	-209.366	13.2681	14.934	-195.279	14.2688	41.2092	-234.195	13.4521	34.7883	-207.073	-0.510562	35.0843	-197.512	6.84916	57.7019	-237.14	0.613191	48.166	-209.799	-3.47048	48.391	-204.321	9.85966	67.7061	-245.522	30.7071	80.6748	-240.417	31.7609	104.025	-230.509	53.9366	86.25	
79	0.658333	-188.924	50.2611	80.3659	-177.419	34.4063	54.4867	-175.44	22.8652	32.411	-182.762	7.94394	16.1306	-216.33	57.5565	22.9913	-213.355	49.4774	-4.60199	-205.983	41.5097	-21.6208	-224.051	35.2242	18.8687	-204.3	16.6419	9.91448	-193.386	10.4627	39.8294	-224.958	17.6662	26.6684	-205.317	1.06919	33.541	-196.06	8.38726	57.2696	-233.995	6.94414	41.9497	-212.13	-4.32893	45.1321	-204.426	9.61899	65.6178	-241.527	38.6033	74.8829	-238.216	43.8835	97.8658	-222.882	60.8927	81.4156	
80	0.666667	-183.957	47.7388	81.0217	-169.135	29.4603	59.2146	-173.419	18.2476	36.3302	-179.132	3.68967	21.3198	-200.026	54.108	15.9883	-195.145	40.4339	-4.80419	-184.427	26.803	-20.2615	-213.565	37.229	15.9896	-198.175	11.6368	11.2127	-188.952	9.72423	40.1129	-219.521	23.225	26.8114	-202.199	4.59367	30.4701	-195.358	11.7856	59.056	-231.792	8.15918	38.2893	-211.374	0.971439	43.5615	-204.262	11.0539	66.4368	-238.179	47.8321	64.6923	-231.101	51.6343	93.9201	-212.79	64.5798	78.8872	
81	0.675	-175.04	48.3207	81.2788	-166.591	26.6834	57.6572	-167.818	14.9235	36.5036	-175.901	0.226691	21.9065	-190.02	54.7556	17.2746	-187.985	41.8841	-3.06442	-181.003	23.642	-20.2347	-203	39.9262	13.4388	-190.022	13.5759	9.71121	-188.71	8.02498	42.3926	-216.245	24.0871	25.5036	-201.64	2.68305	30.9839	-193.429	12.7719	60.285	-224.355	14.8914	35.774	-207.962	2.79078	44.0633	-204.067	14.2133	68.7035	-232.095	52.0745	63.8636	-230.824	54.2148	89.7373	-206.478	66.2435	75.2488	
82	0.683333	-172.956	50.362	79.0114	-164.856	28.4004	60.0462	-166.823	13.7746	35.7684	-176.775	1.52443	20.7488	-185.215	61.5719	14.8694	-181.846	51.9238	-6.30636	-179.474	36.2785	-24.6743	-200.552	43.251	14.1917	-186.838	13.2576	11.3327	-185.062	10.6944	42.8272	-211.357	26.0188	22.6533	-198.508	4.44622	31.4748	-189.712	14.0142	57.6433	-224.769	20.2918	36.1271	-206.674	3.35822	43.9645	-201.636	15.8917	65.521	-224.837	57.3913	58.7463	-224.792	60.462	87.8734	-204.307	70.1278	75.3844	
83	0.691667	-170.991	49.7362	81.3144	-158.528	26.5705	58.2163	-163.296	14.5298	37.2841	-172.183	-0.451421	19.9957	-178.728	63.339	15.924	-176.717	55.2095	-8.24775	-171.79	43.7446	-27.7659	-195.95	40.3821	9.50438	-186.096	12.9056	10.7279	-183.08	9.7697	40.9007	-206.959	28.397	21.9939	-194.278	5.5372	30.7269	-190.082	12.8596	59.6655	-221.626	19.8111	34.5937	-205.914	3.83437	44.8833	-197.156	20.9843	64.9258	-222.71	57.2957	57.3219	-223.571	60.1338	86.0414	-198.036	71.4933	71.8379	
84	0.7	-163.219	48.8925	77.4612	-153.944	24.2965	57.1523	-153.139	10.4962	36.8893	-165.08	-2.61765	21.4335	-169.459	60.0198	15.4714	-167.107	47.0559	-10.6727	-159.997	36.0448	-25.9869	-183.994	38.1847	10.0025	-180.56	10.3546	10.743	-176.474	9.0802	44.4015	-201.588	26.0493	20.6178	-187.583	4.86032	34.8115	-185.273	14.8897	60.5795	-212.465	21.1082	31.6961	-201.953	5.10328	46.1786	-192.196	21.1029	64.6287	-216.312	61.677	54.2373	-214.883	64.1051	85.5891	-188.503	72.3401	70.2545	
